:FULLY-SPECIFIED
:FORCE-ALL-JOINTS-BE-3DOF
:DEGREES
34
root 5.98343 16.9011 -28.0765 9.97893 -1.88808 -2.25526
lfemur -20.0646 1.67229 -19.7877
ltibia 33.7327 -0 0
lfoot -36.0186 4.25902 4.82348e-05
ltoes 36.1687 -0 0
rfemur -16.7956 7.47637 19.5566
rtibia 30.5567 -0 0
rfoot -27.3799 -19.198 8.67815e-05
rtoes 15.0569 -0 0
lowerback -5.46575 2.56265 -1.01023
upperback -1.90861 3.45594 0.84589
thorax 0.984741 1.73267 1.64521
lowerneck -9.54225 -1.64937 2.66833
upperneck -2.60409 -2.46399 0.73678
head 0.75201 -1.23512 -0.300152
lclavicle -4.64459e-14 -7.12292e-15 1.32596e-30
lhumerus -41.5134 -12.7454 97.1085
lradius 38.7922 -0 0
lwrist 5.68683 0 0
lhand -11.3023 5.87625 0.00100964
lfingers 7.12502 -0 0
lthumb 14.7292 35.3327 0.000925283
rclavicle -4.64459e-14 -7.12292e-15 1.32596e-30
rhumerus -40.6312 -5.08278 -88.6383
rradius 39.1226 -0 0
rwrist 11.148 0 0
rhand -26.8354 -19.9001 6.86085e-05
rfingers 7.12502 -0 0
rthumb -0.261164 -49.8798 6.62096e-05
35
root 5.97626 16.9014 -28.0771 10.0018 -1.88999 -2.21195
lfemur -20.0784 1.68084 -19.8079
ltibia 33.7107 -0 0
lfoot -35.9394 4.26321 3.18544e-05
ltoes 36.012 -0 0
rfemur -16.7999 7.4503 19.5318
rtibia 30.5259 -0 0
rfoot -27.3473 -19.2108 -2.69981e-05
rtoes 14.7617 -0 0
lowerback -5.51945 2.54482 -0.931192
upperback -1.8849 3.42933 0.760382
thorax 1.0497 1.71816 1.51553
lowerneck -9.52857 -1.63091 2.70471
upperneck -2.65898 -2.44232 0.797927
head 0.732687 -1.22429 -0.285864
lclavicle -4.61941e-14 -4.7294e-15 5.51056e-31
lhumerus -41.505 -12.8221 97.0598
lradius 39.027 -0 0
lwrist 5.84857 0 0
lhand -11.4179 5.59632 0.00043458
lfingers 7.12502 -0 0
lthumb 14.6179 35.061 0.000396226
rclavicle -4.61941e-14 -4.7294e-15 5.51056e-31
rhumerus -40.5659 -5.06709 -88.768
rradius 39.0763 -0 0
rwrist 11.1791 0 0
rhand -26.8136 -19.8944 3.92668e-05
rfingers 7.12502 -0 0
rthumb -0.240088 -49.8741 3.78993e-05
36
root 5.96913 16.9015 -28.0778 10.0256 -1.87695 -2.17374
lfemur -20.1012 1.67309 -19.8209
ltibia 33.7015 0 0
lfoot -35.8574 4.26421 0
ltoes 35.874 0 0
rfemur -16.8063 7.39226 19.5132
rtibia 30.4968 0 0
rfoot -27.3152 -19.2078 0
rtoes 14.4027 0 0
lowerback -5.56804 2.52222 -0.843564
upperback -1.86292 3.39584 0.675257
thorax 1.11046 1.70037 1.38064
lowerneck -9.51818 -1.61384 2.74008
upperneck -2.70871 -2.42252 0.859358
head 0.715568 -1.21433 -0.271487
lclavicle -4.49253e-14 -2.88238e-15 0
lhumerus -41.4952 -12.8889 97.0002
lradius 39.2435 0 0
lwrist 5.99353 0 0
lhand -11.51 5.33451 0
lfingers 7.12502 0 0
lthumb 14.5291 34.8057 0
rclavicle -4.49253e-14 -2.88238e-15 0
rhumerus -40.5062 -5.05506 -88.8996
rradius 39.0384 0 0
rwrist 11.1885 0 0
rhand -26.7944 -19.91 0
rfingers 7.12502 0 0
rthumb -0.221556 -49.8897 0
37
root 5.96196 16.9016 -28.0784 10.0473 -1.85581 -2.14194
lfemur -20.1204 1.62416 -19.8236
ltibia 33.6919 -0 0
lfoot -35.779 4.29643 0.000601342
ltoes 35.742 -0 0
rfemur -16.8128 7.30849 19.5023
rtibia 30.4693 -0 0
rfoot -27.2779 -19.1874 0.000201633
rtoes 13.9881 -0 0
lowerback -5.61156 2.49505 -0.747174
upperback -1.84193 3.35573 0.590662
thorax 1.16789 1.6794 1.24065
lowerneck -9.51034 -1.5965 2.7771
upperneck -2.75119 -2.40265 0.91939
head 0.70115 -1.20432 -0.25793
lclavicle -4.17216e-14 -1.2921e-15 -4.20035e-31
lhumerus -41.4839 -12.9388 96.9276
lradius 39.4381 -0 0
lwrist 6.12105 0 0
lhand -11.5879 5.06425 5.22849e-05
lfingers 7.12502 -0 0
lthumb 14.454 34.5409 6.15532e-05
rclavicle -4.17216e-14 -1.2921e-15 -4.20035e-31
rhumerus -40.4505 -5.05573 -89.0312
rradius 39.0019 -0 0
rwrist 11.1828 0 0
rhand -26.7819 -19.9478 1.33164e-05
rfingers 7.12502 -0 0
rthumb -0.209472 -49.9275 1.28494e-05
38
root 5.9547 16.9018 -28.079 10.0656 -1.83356 -2.11484
lfemur -20.1295 1.53092 -19.8178
ltibia 33.6748 -0 0
lfoot -35.7063 4.37202 0.00198724
ltoes 35.6054 -0 0
rfemur -16.8191 7.20326 19.497
rtibia 30.4443 -0 0
rfoot -27.2343 -19.147 0.000480917
rtoes 13.5333 -0 0
lowerback -5.65063 2.46466 -0.645317
upperback -1.82093 3.31101 0.506251
thorax 1.22317 1.65624 1.09723
lowerneck -9.50388 -1.57781 2.81713
upperneck -2.78849 -2.38137 0.97665
head 0.68856 -1.19365 -0.245764
lclavicle -3.61311e-14 4.72617e-16 -8.13007e-31
lhumerus -41.4716 -12.9714 96.8436
lradius 39.6154 -0 0
lwrist 6.23616 0 0
lhand -11.6656 4.75759 0.000369922
lfingers 7.12502 -0 0
lthumb 14.3792 34.2396 0.000372286
rclavicle -3.61311e-14 4.72617e-16 -8.13007e-31
rhumerus -40.3963 -5.07022 -89.1623
rradius 38.9628 -0 0
rwrist 11.1696 0 0
rhand -26.7761 -20.0021 9.78944e-05
rfingers 7.12502 -0 0
rthumb -0.203876 -49.9818 9.44813e-05
39
root 5.94745 16.902 -28.0795 10.0833 -1.80513 -2.09033
lfemur -20.1404 1.4202 -19.8077
ltibia 33.6623 -0 0
lfoot -35.6331 4.45683 0.00347734
ltoes 35.4744 -0 0
rfemur -16.8274 7.07116 19.4948
rtibia 30.4225 -0 0
rfoot -27.1908 -19.0871 0.000733033
rtoes 13.0348 -0 0
lowerback -5.68545 2.43136 -0.539422
upperback -1.80037 3.26216 0.421723
thorax 1.27576 1.63113 0.950891
lowerneck -9.49922 -1.55925 2.8577
upperneck -2.82372 -2.36035 1.03252
head 0.67691 -1.18314 -0.234181
lclavicle -2.90167e-14 2.24748e-15 -1.02349e-30
lhumerus -41.4588 -12.9943 96.7512
lradius 39.7812 -0 0
lwrist 6.34148 0 0
lhand -11.738 4.43396 0.000682867
lfingers 7.12502 -0 0
lthumb 14.3095 33.9209 0.000674941
rclavicle -2.90167e-14 2.24748e-15 -1.02349e-30
rhumerus -40.3447 -5.08882 -89.2952
rradius 38.9272 -0 0
rwrist 11.1444 0 0
rhand -26.7725 -20.0697 0.000198753
rfingers 7.12502 -0 0
rthumb -0.200392 -50.0494 0.000191823
